<svg width="23" height="22" viewBox="0 0 23 22" fill="none" xmlns="http://www.w3.org/2000/svg">
<path d="M1.75302 1.55127V0.55127C1.20074 0.55127 0.753021 0.998985 0.753021 1.55127L1.75302 1.55127ZM21.003 1.55127H22.003C22.003 0.998985 21.5553 0.55127 21.003 0.55127V1.55127ZM21.003 15.7798V16.7798C21.5553 16.7798 22.003 16.332 22.003 15.7798H21.003ZM5.90674 15.7798V14.7798C5.68702 14.7798 5.47341 14.8521 5.29894 14.9857L5.90674 15.7798ZM1.75302 18.959H0.753021V20.9838L2.36082 19.7531L1.75302 18.959ZM1.75302 2.55127H21.003V0.55127H1.75302V2.55127ZM20.003 1.55127V15.7798H22.003V1.55127H20.003ZM21.003 14.7798H5.90674V16.7798H21.003V14.7798ZM5.29894 14.9857L1.14522 18.165L2.36082 19.7531L6.51454 16.5738L5.29894 14.9857ZM2.75302 18.959V1.55127H0.753021V18.959H2.75302Z" fill="#0549DF"/>
</svg>
