<svg width="23" height="22" viewBox="0 0 23 22" fill="none" xmlns="http://www.w3.org/2000/svg">
<path d="M6.52087 6.875H16.1459M6.52087 11H11.3334M6.95323 17.4346L10.8372 19.654C11.1447 19.8297 11.5221 19.8297 11.8295 19.654L15.7135 17.4346C15.9858 17.279 16.3153 17.2601 16.6036 17.3837L19.5645 18.6526C20.2243 18.9354 20.9584 18.4514 20.9584 17.7335V2.375C20.9584 1.82272 20.5107 1.375 19.9584 1.375H2.70837C2.15609 1.375 1.70837 1.82272 1.70837 2.375V17.7335C1.70837 18.4514 2.44243 18.9354 3.10229 18.6526L6.06317 17.3837C6.35143 17.2601 6.68094 17.279 6.95323 17.4346Z" stroke="#0549DF" stroke-width="2"/>
</svg>
