<svg width="22" height="22" viewBox="0 0 22 22" fill="none" xmlns="http://www.w3.org/2000/svg">
<path d="M18.7434 11.9408C18.7434 13.6584 18.2341 15.3374 17.2799 16.7655C16.3256 18.1936 14.9693 19.3067 13.3825 19.964C11.7957 20.6212 10.0496 20.7932 8.36501 20.4581C6.68044 20.123 5.13306 19.296 3.91855 18.0815C2.70404 16.8669 1.87695 15.3196 1.54187 13.635C1.20679 11.9504 1.37876 10.2043 2.03605 8.61748C2.69334 7.03065 3.80641 5.67436 5.23452 4.72013C6.66264 3.7659 8.34164 3.25658 10.0592 3.25658V11.9408H18.7434Z" stroke="#0549DF" stroke-width="2"/>
<path d="M13.5329 1.375C14.4642 1.375 15.3865 1.55844 16.2469 1.91485C17.1074 2.27127 17.8892 2.79367 18.5478 3.45223C19.2063 4.11079 19.7287 4.89262 20.0851 5.75307C20.4416 6.61353 20.625 7.53576 20.625 8.4671H13.5329L13.5329 1.375Z" stroke="#0549DF" stroke-width="2"/>
</svg>
