<svg width="100" height="10" viewBox="0 0 100 10" fill="none" xmlns="http://www.w3.org/2000/svg">
<path fill-rule="evenodd" clip-rule="evenodd" d="M95.3712 6.66927H90.2462V8.05512H96.796V9.58894H90.5065C89.1087 9.58894 88.5333 9.02396 88.5333 7.65157V3.99206C88.5333 2.61966 89.1087 2.05469 90.5065 2.05469H95.3712C96.7686 2.05469 97.3444 2.61966 97.3444 3.99206V4.7319C97.3444 6.1043 96.7686 6.66927 95.3712 6.66927ZM95.6321 4.23515C95.6495 4.14663 95.6446 4.05527 95.6177 3.96908C95.5908 3.88289 95.5427 3.80449 95.4778 3.74076C95.4128 3.67702 95.333 3.62991 95.2452 3.60353C95.1574 3.57715 95.0643 3.57232 94.9742 3.58947H90.2462V5.13705H94.9735C95.0637 5.1542 95.1567 5.14937 95.2445 5.12299C95.3323 5.09661 95.4122 5.0495 95.4771 4.98576C95.5421 4.92203 95.5901 4.84363 95.617 4.75744C95.6439 4.67125 95.6489 4.57989 95.6315 4.49137L95.6321 4.23515ZM83.1083 9.58894H81.3817V3.99206C81.3817 2.61966 81.9574 2.05469 83.3552 2.05469H87.4386V3.5885H83.1083V9.58894ZM58.641 4.36838C58.641 3.81686 58.4081 3.58818 57.8463 3.58818H55.4618C54.8042 3.58818 54.475 3.84441 54.475 4.42091V9.58894H52.7625V4.42251C52.7625 3.84409 52.4337 3.58979 51.7761 3.58979H48.5966V9.58894H46.884V2.05469H51.4182C53.1037 2.05469 53.4325 2.75418 53.6106 3.18495C53.79 2.75418 54.1188 2.05469 55.8043 2.05469H58.3813C59.7791 2.05469 60.3545 2.61966 60.3545 3.99206V9.58894H58.641V4.36838Z" fill="#9FA8B0"/>
<path fill-rule="evenodd" clip-rule="evenodd" d="M98.2741 9.58894V7.90715H100V9.58894H98.2741ZM77.2752 9.58894H63.922C62.5133 9.58894 61.9334 9.02396 61.9334 7.65157V3.99206C61.9334 2.61966 62.5133 2.05469 63.922 2.05469H77.2756C78.6839 2.05469 79.2642 2.61966 79.2642 3.99206V7.65157C79.2642 9.02396 78.6836 9.58894 77.2752 9.58894ZM77.5382 3.5885H63.6597V8.05512H77.5379L77.5382 3.5885Z" fill="#0549DF"/>
</svg>
