<svg width="529" height="320" viewBox="0 0 529 320" fill="none" xmlns="http://www.w3.org/2000/svg">
<path d="M409 312.505L409 3.16209e-10M137 312.505L137 3.16209e-10M273 302.126L273 6.5346e-10M1.00003 320L1 0M477 298.667L477 7.7997e-10M205 312.505L205 3.16209e-10M341 309.045L341 4.6376e-10M69 312.505L69 3.16209e-10M443 298.667L443 7.7997e-10M171 312.505L171 3.16209e-10M307 312.505L307 3.16209e-10M35 312.505L35 3.16209e-10M511 298.667L511 7.7997e-10M239 302.126L239 6.5346e-10M375 309.045L375 4.6376e-10M103 312.505L103 3.16209e-10M426 287.712L426 2.42841e-08M154 287.712L154 2.42841e-08M290 287.712L290 2.42841e-08M18 287.712L18 2.42841e-08M494 287.712L494 2.42841e-08M222 287.712L222 2.42841e-08M358 287.712L358 2.42841e-08M86 287.712L86 2.42841e-08M460 287.712L460 2.42841e-08M188 287.712L188 2.42841e-08M324 287.712L324 2.42841e-08M52 287.712L52 2.42841e-08M528 287.712L528 2.42841e-08M256 287.712L256 2.42841e-08M392 287.712L392 2.42841e-08M120 287.712L120 2.42841e-08" stroke="white" stroke-width="2"/>
</svg>
