<svg width="38" height="37" viewBox="0 0 38 37" fill="none" xmlns="http://www.w3.org/2000/svg">
<path d="M9.0885 6.25748C4.35161 6.25748 0.5 10.2227 0.5 15.0994C0.5 19.4319 3.51919 23.0843 7.61524 23.8121C7.83987 26.9271 5.34259 29.5525 5.31617 29.5797C5.10476 29.8042 5.05851 30.1374 5.21046 30.4027C5.33599 30.6203 5.554 30.7428 5.78523 30.7428C5.83808 30.7428 5.89754 30.736 5.957 30.7156C17.9479 27.2876 17.6968 15.7183 17.677 15.0858C17.6638 10.2159 13.8188 6.25748 9.0885 6.25748Z" fill="#0549DF"/>
<path d="M37.4966 15.0858C37.4834 10.2159 33.6384 6.25748 28.9081 6.25748C24.1712 6.25748 20.3196 10.2227 20.3196 15.0994C20.3196 19.4319 23.3388 23.0843 27.4349 23.8121C27.6595 26.9271 25.1622 29.5525 25.1358 29.5797C24.9244 29.8042 24.8781 30.1374 25.0301 30.4027C25.1556 30.6203 25.3736 30.7428 25.6049 30.7428C25.6577 30.7428 25.7172 30.736 25.7766 30.7156C37.7675 27.2876 37.5164 15.7183 37.4966 15.0858Z" fill="#0549DF"/>
</svg>
