<svg width="744" height="560" viewBox="0 0 744 560" fill="none" xmlns="http://www.w3.org/2000/svg">
<g clip-path="url(#clip0_2609_198)">
<g opacity="0.1" filter="url(#filter0_f_2609_198)">
<ellipse cx="398.5" cy="387" rx="167.5" ry="167" fill="#0549DF"/>
</g>
<path d="M217.462 710.688C244.545 737.771 288.455 737.771 315.538 710.688C342.62 683.605 342.62 639.695 315.538 612.613C288.455 585.53 244.545 585.53 217.462 612.613C190.38 639.695 190.38 683.605 217.462 710.688Z" fill="white"/>
<path d="M315.538 612.613C342.62 639.695 386.53 639.695 413.613 612.613C440.695 585.53 440.695 541.62 413.613 514.538C386.53 487.455 342.62 487.455 315.538 514.538C288.455 541.62 288.455 585.53 315.538 612.613Z" fill="white"/>
<path d="M119.387 612.613C146.47 639.695 190.38 639.695 217.462 612.613C244.545 585.53 244.545 541.62 217.462 514.538C190.38 487.455 146.47 487.455 119.387 514.538C92.3045 541.62 92.3045 585.53 119.387 612.613Z" fill="white"/>
<path d="M217.462 514.538C244.545 541.62 288.455 541.62 315.538 514.538C342.62 487.455 342.62 443.545 315.538 416.462C288.455 389.38 244.545 389.38 217.462 416.462C190.38 443.545 190.38 487.455 217.462 514.538Z" fill="white"/>
<path d="M21.312 514.538C48.3948 541.62 92.3045 541.62 119.387 514.538C146.47 487.455 146.47 443.545 119.387 416.462C92.3045 389.38 48.3948 389.38 21.312 416.462C-5.77068 443.545 -5.77068 487.455 21.312 514.538Z" fill="white"/>
<path d="M119.387 416.462C146.47 443.545 190.38 443.545 217.462 416.462C244.545 389.38 244.545 345.47 217.462 318.387C190.38 291.305 146.47 291.305 119.387 318.387C92.3045 345.47 92.3045 389.38 119.387 416.462Z" fill="white"/>
<path d="M413.613 514.538C440.695 541.62 484.605 541.62 511.688 514.538C538.771 487.455 538.771 443.545 511.688 416.462C484.605 389.38 440.695 389.38 413.613 416.462C386.53 443.545 386.53 487.455 413.613 514.538Z" fill="white"/>
<path d="M315.538 416.462C342.62 443.545 386.53 443.545 413.613 416.462C440.695 389.38 440.695 345.47 413.613 318.387C386.53 291.305 342.62 291.305 315.538 318.387C288.455 345.47 288.455 389.38 315.538 416.462Z" fill="white"/>
<path d="M217.462 318.387C244.545 345.47 288.455 345.47 315.538 318.387C342.62 291.305 342.62 247.395 315.538 220.312C288.455 193.229 244.545 193.229 217.462 220.312C190.38 247.395 190.38 291.305 217.462 318.387Z" fill="white"/>
</g>
<defs>
<filter id="filter0_f_2609_198" x="15.4427" y="4.44267" width="766.115" height="765.115" filterUnits="userSpaceOnUse" color-interpolation-filters="sRGB">
<feFlood flood-opacity="0" result="BackgroundImageFix"/>
<feBlend mode="normal" in="SourceGraphic" in2="BackgroundImageFix" result="shape"/>
<feGaussianBlur stdDeviation="107.779" result="effect1_foregroundBlur_2609_198"/>
</filter>
<clipPath id="clip0_2609_198">
<rect width="817" height="560" fill="white" transform="translate(-73)"/>
</clipPath>
</defs>
</svg>
