<svg width="22" height="22" viewBox="0 0 22 22" fill="none" xmlns="http://www.w3.org/2000/svg">
<path d="M8.88752 2.48095C9.90974 1.00635 12.09 1.00635 13.1122 2.48095L13.952 3.69236C14.3897 4.32372 15.0868 4.72621 15.8524 4.78956L17.3214 4.91112C19.1096 5.05908 20.1997 6.94727 19.4338 8.56984L18.8045 9.9028C18.4766 10.5975 18.4766 11.4025 18.8045 12.0972L19.4338 13.4302C20.1997 15.0527 19.1096 16.9409 17.3214 17.0889L15.8524 17.2104C15.0868 17.2738 14.3897 17.6763 13.952 18.3076L13.1122 19.519C12.09 20.9937 9.90973 20.9936 8.88752 19.519L8.04775 18.3076C7.61008 17.6763 6.91295 17.2738 6.14734 17.2104L4.67835 17.0889C2.89019 16.9409 1.80005 15.0527 2.56599 13.4302L3.19521 12.0972C3.52315 11.4025 3.52315 10.5975 3.19521 9.9028L2.56599 8.56983C1.80005 6.94727 2.8902 5.05908 4.67835 4.91112L6.14735 4.78956C6.91295 4.72621 7.61008 4.32372 8.04775 3.69236L8.88752 2.48095Z" stroke="#0549DF" stroke-width="2"/>
<path d="M13.75 11C13.75 12.5188 12.5188 13.75 11 13.75C9.48122 13.75 8.25 12.5188 8.25 11C8.25 9.48122 9.48122 8.25 11 8.25C12.5188 8.25 13.75 9.48122 13.75 11Z" stroke="#0549DF" stroke-width="2"/>
</svg>
