<svg width="22" height="22" viewBox="0 0 22 22" fill="none" xmlns="http://www.w3.org/2000/svg">
<path d="M5.94953 6.23628C5.39724 6.23628 4.94953 6.68399 4.94953 7.23628C4.94953 7.78856 5.39724 8.23628 5.94953 8.23628V6.23628ZM11.885 8.23628C12.4373 8.23628 12.885 7.78856 12.885 7.23628C12.885 6.68399 12.4373 6.23628 11.885 6.23628V8.23628ZM4.10889 3.72168H15.1129V1.72168H4.10889V3.72168ZM15.1129 18.2667H4.10889V20.2667H15.1129V18.2667ZM2.35889 16.5167V5.47168H0.358887V16.5167H2.35889ZM16.8629 5.47168V8.22227H18.8629V5.47168H16.8629ZM16.8629 13.8126V16.5167H18.8629V13.8126H16.8629ZM4.10889 18.2667C3.14239 18.2667 2.35889 17.4832 2.35889 16.5167H0.358887C0.358887 18.5877 2.03782 20.2667 4.10889 20.2667V18.2667ZM15.1129 20.2667C17.184 20.2667 18.8629 18.5877 18.8629 16.5167H16.8629C16.8629 17.4832 16.0794 18.2667 15.1129 18.2667V20.2667ZM15.1129 3.72168C16.0794 3.72168 16.8629 4.50518 16.8629 5.47168H18.8629C18.8629 3.40061 17.184 1.72168 15.1129 1.72168V3.72168ZM4.10889 1.72168C2.03782 1.72168 0.358887 3.40061 0.358887 5.47168H2.35889C2.35889 4.50518 3.14239 3.72168 4.10889 3.72168V1.72168ZM5.94953 8.23628H11.885V6.23628H5.94953V8.23628ZM17.9033 12.7441C16.9368 12.7441 16.1533 11.9606 16.1533 10.9941H14.1533C14.1533 13.0651 15.8322 14.7441 17.9033 14.7441V12.7441ZM19.6533 10.9941C19.6533 11.9606 18.8698 12.7441 17.9033 12.7441V14.7441C19.9743 14.7441 21.6533 13.0651 21.6533 10.9941H19.6533ZM17.9033 9.24407C18.8698 9.24407 19.6533 10.0276 19.6533 10.9941H21.6533C21.6533 8.923 19.9743 7.24407 17.9033 7.24407V9.24407ZM17.9033 7.24407C15.8322 7.24407 14.1533 8.923 14.1533 10.9941H16.1533C16.1533 10.0276 16.9368 9.24407 17.9033 9.24407V7.24407Z" fill="#0549DF"/>
</svg>
